<svg width="182" height="49" viewBox="0 0 182 49" fill="none" xmlns="http://www.w3.org/2000/svg">
<path d="M42.3448 39.2965H42.3311L22.6437 19.8645C21.8931 19.1237 21.4714 18.1188 21.4714 17.0708V1.34089C21.4714 0.148832 22.9316 -0.448293 23.7856 0.394685L42.3448 18.713V39.2965Z" fill="#7F30EB"/>
<path d="M1.35858 24.7415H27.5891L42.3447 39.3056H14.4844C13.4219 39.3056 12.403 38.8886 11.6524 38.1467L0.399194 27.0249C-0.45413 26.1816 0.151216 24.7415 1.35858 24.7415Z" fill="#EC6033"/>
<path d="M42.3445 39.3056V24.7415H27.5889L42.3445 39.3056Z" fill="#23224C"/>
<path d="M57.1257 17.3786V24.9271H68.9207V29.0206H57.1257V39.6109H52.8262V13.3228H71.0135V17.3786H57.1257Z" fill="#F4F4F4"/>
<path d="M74.552 13.3228H78.9276V17.4538H74.552V13.3228ZM74.78 20.8337H78.775V39.6112H74.78V20.8337Z" fill="#F4F4F4"/>
<path d="M95.2883 20.2705C99.2072 20.2705 102.213 22.4486 102.213 26.7298V39.6113H98.2182V29.5466C98.2182 25.7534 96.7725 24.101 93.7664 24.101C90.4943 24.101 87.7167 25.7909 87.7167 29.5466V39.6113H83.7217V20.8337H87.7167V21.2095C87.7167 22.5989 87.0319 24.2512 86.499 25.5283L87.1838 25.7913C87.7163 24.5142 88.2492 22.7119 89.3527 21.8482C91.0269 20.4963 92.701 20.2709 95.2883 20.2709V20.2705Z" fill="#F4F4F4"/>
<path d="M110.013 24.4015H106.208V20.8713H110.013V14.1866H114.008V20.8713H118.954V24.4015H114.008V33.903C114.008 35.4802 114.731 35.8935 116.519 35.8935H118.764V39.6116H114.693C111.42 39.6116 110.013 36.8324 110.013 33.9034V24.4019V24.4015Z" fill="#F4F4F4"/>
<path d="M131.51 40.212C125.841 40.212 121.808 35.7053 121.808 30.1098C121.808 24.5142 125.841 20.2705 131.51 20.2705C134.097 20.2705 136.114 21.1343 137.522 22.5989C138.321 23.425 138.549 24.9647 138.891 26.0164L139.614 25.7909C139.272 24.7017 138.625 23.3875 138.587 22.2607L138.549 20.8337H142.544V39.6113H138.549L138.587 38.0716C138.625 36.9448 139.272 35.593 139.614 34.5038L138.891 34.2784C138.549 35.3676 138.321 36.8697 137.56 37.7334C136.152 39.2731 134.097 40.212 131.51 40.212ZM131.7 36.4943C135.315 36.4943 137.483 33.4525 137.636 30.1102C137.636 26.3921 135.543 23.951 131.7 23.951C127.857 23.951 125.803 26.6175 125.803 30.1102C125.803 33.6028 128.047 36.4943 131.7 36.4943Z" fill="#F4F4F4"/>
<path d="M147.908 12.3839H151.941V33.903C151.941 35.4427 152.512 35.8935 154.224 35.8935H156.659V39.6116H154.034C149.925 39.6116 147.908 38.1095 147.908 35.0673V12.3839H147.908Z" fill="#F4F4F4"/>
<path d="M162.215 39.6112H157.573L166.78 25.8661L158.143 13.3228H163.052L168.378 21.6975C168.911 22.5237 168.873 23.7632 168.873 24.7769H169.634C169.634 23.7628 169.634 22.5237 170.204 21.6975L175.95 13.3228H180.668L171.879 26.3545L181.239 39.6112H176.368L170.204 30.4103C169.634 29.5841 169.634 28.3447 169.634 27.331H168.873C168.873 28.345 168.911 29.5841 168.34 30.4103L162.214 39.6112H162.215Z" fill="#F4F4F4"/>
</svg>
